<svg width="37" height="43" viewBox="0 0 37 43" fill="none" xmlns="http://www.w3.org/2000/svg">
<path d="M5.13903 43C4.26748 42.9966 3.41137 42.7976 2.65182 42.4218C1.84336 42.0355 1.16959 41.4632 0.702529 40.7663C0.235471 40.0694 -0.00730194 39.274 0.000167293 38.4651V5.42017C0.000167293 3.98265 0.649865 2.60401 1.80633 1.58753C2.9628 0.571052 4.53131 0 6.16681 0H30.8334C32.4689 0 34.0374 0.571052 35.1938 1.58753C36.3503 2.60401 37 3.98265 37 5.42017V38.4651C37.0012 39.2728 36.7559 40.0659 36.2898 40.762C35.8237 41.458 35.1538 42.0315 34.3498 42.4226C33.5459 42.8137 32.6373 43.0083 31.7188 42.9859C30.8002 42.9635 29.9053 42.7251 29.1273 42.2954L18.5 42.9859C18.6633 42.8961 18.3074 42.9859 18.5 42.9859L7.85235 42.2954C7.0412 42.7497 6.10083 42.9939 5.13903 43Z" fill="white"/>
<path d="M11.7832 20.6035C11.7832 21.5345 11.3145 22 10.377 22H6.04102C5.12305 22 4.66406 21.5345 4.66406 20.6035V16.8438H6.93945V20.0371H9.49805V6.7168H11.7832V20.6035ZM21.3145 20.6035C21.3145 21.5345 20.8522 22 19.9277 22H14.9668C14.0618 22 13.6094 21.5345 13.6094 20.6035V8.12305C13.6094 7.18555 14.0618 6.7168 14.9668 6.7168H19.9277C20.8522 6.7168 21.3145 7.18555 21.3145 8.12305V20.6035ZM19.0293 20.0371V8.67969H15.8945V20.0371H19.0293ZM30.543 15.0371C30.543 15.9876 30.0775 16.4629 29.1465 16.4629H25.4453V22H23.1602V6.7168H29.1465C30.0775 6.7168 30.543 7.18555 30.543 8.12305V15.0371ZM28.2383 14.5V8.67969H25.4453V14.5H28.2383Z" fill="#2E2343"/>
<path d="M5.65234 31.1035C5.65234 31.5104 5.44564 31.7139 5.03223 31.7139H3.03027C2.61035 31.7139 2.40039 31.5104 2.40039 31.1035V27.3926C2.40039 26.9857 2.61035 26.7822 3.03027 26.7822H5.03223C5.44564 26.7822 5.65234 26.9857 5.65234 27.3926V31.1035ZM4.55859 30.7861V27.7148H3.49902V30.7861H4.55859ZM11.3408 26.7822L10.2812 31.7236H9.30469L8.77246 28.9941L8.24023 31.7236H7.27344L6.21387 26.7822H7.2832L7.82031 29.9316L8.35254 26.7822H9.20215L9.73438 29.9316L10.2715 26.7822H11.3408ZM13.0303 26.0742H11.9121V24.9219H13.0303V26.0742ZM13.0205 31.7139H11.9219V26.7822H13.0205V31.7139ZM14.9932 26.0742H13.875V24.9219H14.9932V26.0742ZM14.9834 32.9053C14.9834 33.3122 14.7767 33.5156 14.3633 33.5156H13.1768V32.583H13.8848V26.7822H14.9834V32.9053ZM17.9863 25.0439H17.166V26.7822H17.8789V27.7344H17.166V31.7139H16.0576V27.7344H15.5498V26.7822H16.0576V24.6826C16.0576 24.2757 16.2643 24.0723 16.6777 24.0723H17.9863V25.0439ZM21.6875 31.7139H20.4961L19.5146 29.4531V31.7139H18.3965V24.0723H19.5146V28.6621L20.3984 26.7822H21.5654V26.8018L20.4277 29.043L21.6875 31.7139ZM25.3447 31.7139H24.2754V31.543C24.0215 31.582 23.7676 31.6211 23.5137 31.6602C23.1816 31.709 22.9294 31.7334 22.7568 31.7334C22.3499 31.7334 22.1465 31.5332 22.1465 31.1328V29.3555C22.1465 28.9486 22.3564 28.7451 22.7764 28.7451H24.2852V27.6123H23.2158V28.3154H22.2051V27.3926C22.2051 26.9857 22.415 26.7822 22.835 26.7822H24.7246C25.138 26.7822 25.3447 26.9857 25.3447 27.3926V31.7139ZM24.2852 30.8252V29.502H23.2158V30.8643L24.2852 30.8252ZM29.3389 31.1035C29.3389 31.5104 29.1289 31.7139 28.709 31.7139H26.7803C26.3604 31.7139 26.1504 31.5104 26.1504 31.1035V27.3926C26.1504 26.9857 26.3604 26.7822 26.7803 26.7822H28.709C29.1289 26.7822 29.3389 26.9857 29.3389 27.3926V29.2041L29.0312 29.5117H27.2197V30.8936H28.2695V30.0732H29.3389V31.1035ZM28.2695 28.7842V27.6025H27.2197V28.7842H28.2695ZM31.5947 31.7139H30.4717V26.3232H30.0322V26.1719L30.623 24.0723H31.5947V31.7139Z" fill="#2E2343"/>
</svg>
