<svg width="10" height="10" viewBox="0 0 10 10" fill="none" xmlns="http://www.w3.org/2000/svg">
<g clip-path="url(#clip0_0_680)">
<path d="M9.7347 4.5493L5.64156 0.455503C5.47167 0.285617 5.24088 0.190125 5.00073 0.190125C4.76037 0.190125 4.52957 0.285617 4.35969 0.455503L0.265675 4.5493C0.00660389 4.80837 -0.0710521 5.19491 0.0692507 5.53359C0.209771 5.87228 0.54019 6.0898 0.906717 6.0898H1.42964V9.01789C1.42964 9.45576 1.7792 9.81011 2.2173 9.81011H2.91403V7.16306C2.91403 6.96142 3.08065 6.80393 3.28208 6.80393H4.63573C4.83715 6.80393 4.99964 6.96164 4.99964 7.16306V9.80989H7.78373C8.2216 9.80989 8.56942 9.45555 8.56942 9.01767V6.0898H9.09387C9.4604 6.0898 9.79082 5.87228 9.93134 5.53359C10.0714 5.19491 9.99399 4.80859 9.7347 4.5493Z" fill="black"/>
</g>
<defs>
<clipPath id="clip0_0_680">
<rect width="10" height="10" fill="white"/>
</clipPath>
</defs>
</svg>
