<svg width="10" height="10" viewBox="0 0 10 10" fill="none" xmlns="http://www.w3.org/2000/svg">
<path d="M4.73862 3.79583C4.8204 3.67529 4.90992 3.65996 4.98255 3.65996C5.05517 3.65996 5.17616 3.67529 5.25796 3.79583C5.90258 4.68123 6.96661 6.445 7.75151 7.74604C8.26337 8.59451 8.65651 9.24617 8.73716 9.3291C9.03995 9.64043 9.4552 9.4464 9.6965 9.09327C9.93405 8.74562 9.99999 8.5015 9.99999 8.24106C9.99999 8.06368 6.5584 1.66295 6.2118 1.13016C5.87848 0.617719 5.76991 0.488281 5.19942 0.488281H4.77252C4.20373 0.488281 4.12153 0.617719 3.78818 1.13016C3.44161 1.66295 0 8.06368 0 8.24106C0 8.5015 0.0659484 8.74562 0.303508 9.09327C0.544805 9.4464 0.960057 9.64043 1.26283 9.3291C1.3435 9.24617 1.73664 8.59451 2.2485 7.74604C3.03338 6.445 4.09401 4.68123 4.73862 3.79583Z" fill="#000020"/>
</svg>
