<svg width="10" height="10" viewBox="0 0 10 10" fill="none" xmlns="http://www.w3.org/2000/svg">
<g clip-path="url(#clip0_0_16)">
<path d="M8.53769 1.46664C6.58627 -0.487179 3.42048 -0.489121 1.46664 1.46227C-0.487172 3.41371 -0.489139 6.57953 1.4623 8.53337C3.41369 10.4872 6.57953 10.4891 8.53337 8.53771C10.4872 6.58632 10.4891 3.42045 8.53769 1.46664ZM5.69812 8.17273C5.69812 8.24988 5.6356 8.31235 5.5585 8.31235H4.44151C4.36441 8.31235 4.30189 8.24988 4.30189 8.17273V4.02621C4.30189 3.94906 4.36441 3.88659 4.44151 3.88659H5.5585C5.6356 3.88659 5.69812 3.94904 5.69812 4.02621V8.17273ZM5.00001 3.30714C4.55351 3.30714 4.19023 2.9439 4.19023 2.49738C4.19023 2.05091 4.55348 1.68761 5.00001 1.68761C5.44653 1.68761 5.80978 2.05089 5.80978 2.49738C5.80978 2.9439 5.44648 3.30714 5.00001 3.30714Z" fill="black"/>
</g>
<defs>
<clipPath id="clip0_0_16">
<rect width="10" height="10" fill="white"/>
</clipPath>
</defs>
</svg>
