<svg width="12" height="12" viewBox="0 0 12 12" fill="none" xmlns="http://www.w3.org/2000/svg">
<path d="M6 11C8.76142 11 11 8.76142 11 6C11 3.23858 8.76142 1 6 1C3.23858 1 1 3.23858 1 6C1 8.76142 3.23858 11 6 11Z" stroke="white" stroke-width="0.7" stroke-miterlimit="10" stroke-linecap="round" stroke-linejoin="round"/>
<path d="M9.26401 2.21582C8.38778 2.97157 7.24868 3.43159 6.00005 3.43159C4.75142 3.43159 3.61232 2.97705 2.73608 2.2213" stroke="white" stroke-width="0.7" stroke-miterlimit="10" stroke-linecap="round" stroke-linejoin="round"/>
<path d="M2.73608 9.78413C3.61232 9.02838 4.75142 8.56836 6.00005 8.56836C7.24868 8.56836 8.38778 9.02838 9.26401 9.78413" stroke="white" stroke-width="0.7" stroke-miterlimit="10" stroke-linecap="round" stroke-linejoin="round"/>
<path d="M6.00004 1C4.74045 1.99671 3.8916 3.86418 3.8916 6C3.8916 8.13582 4.74045 10.0033 6.00004 11C7.25962 10.0033 8.10847 8.13582 8.10847 6C8.10847 3.86418 7.25962 1.99671 6.00004 1Z" stroke="white" stroke-width="0.7" stroke-miterlimit="10" stroke-linecap="round" stroke-linejoin="round"/>
<path d="M1 6H11" stroke="white" stroke-width="0.7" stroke-miterlimit="10" stroke-linecap="round" stroke-linejoin="round"/>
</svg>
